<?xml version="1.0" encoding="UTF-8" standalone="no"?>
<svg
   xmlns:dc="http://purl.org/dc/elements/1.1/"
   xmlns:cc="http://creativecommons.org/ns#"
   xmlns:rdf="http://www.w3.org/1999/02/22-rdf-syntax-ns#"
   xmlns:svg="http://www.w3.org/2000/svg"
   xmlns="http://www.w3.org/2000/svg"
   xmlns:sodipodi="http://sodipodi.sourceforge.net/DTD/sodipodi-0.dtd"
   xmlns:inkscape="http://www.inkscape.org/namespaces/inkscape"
   width="38"
   height="50"
   viewBox="0 0 38 50"
   version="1.1"
   id="svg20"
   sodipodi:docname="cesky_lev.svg"
   inkscape:version="0.92.4 (5da689c313, 2019-01-14)">
  <metadata
     id="metadata24">
    <rdf:RDF>
      <cc:Work
         rdf:about="">
        <dc:format>image/svg+xml</dc:format>
        <dc:type
           rdf:resource="http://purl.org/dc/dcmitype/StillImage" />
        <dc:title>Group 3</dc:title>
      </cc:Work>
    </rdf:RDF>
  </metadata>
  <sodipodi:namedview
     pagecolor="#ffffff"
     bordercolor="#666666"
     borderopacity="1"
     objecttolerance="10"
     gridtolerance="10"
     guidetolerance="10"
     inkscape:pageopacity="0"
     inkscape:pageshadow="2"
     inkscape:window-width="1920"
     inkscape:window-height="1043"
     id="namedview22"
     showgrid="false"
     showguides="false"
     inkscape:zoom="6.9977382"
     inkscape:cx="79.766852"
     inkscape:cy="28.778554"
     inkscape:window-x="0"
     inkscape:window-y="18"
     inkscape:window-maximized="0"
     inkscape:current-layer="svg20" />
  <!-- Generator: Sketch 50.2 (55047) - http://www.bohemiancoding.com/sketch -->
  <title
     id="title2">Group 3</title>
  <desc
     id="desc4">Created with Sketch.</desc>
  <defs
     id="defs6" />
  <g
     id="Page-1"
     style="fill:none;fill-rule:evenodd;stroke:none;stroke-width:1">
    <g
       id="Datovka-login"
       transform="translate(-32,-26)"
       style="fill:#ffffff">
      <g
         id="Group-3"
         transform="translate(32,25)">
        <g
           id="symbol"
           transform="translate(0,1)"
           style="fill-rule:nonzero">
          <path
             d="M 19.966053,31.5 C 19.755367,31.57143 19.263767,31.57143 18.772166,30.857143 18.280566,30.142857 19.053081,30 19.053081,29.5 c 0,-0.5 -1.123658,-1.428571 -1.54503,-1.571429 C 17.08668,27.785714 17.367594,27.357143 17.156908,27.214286 16.946222,27.071429 16.524851,27 13.434792,27 c -3.090059,0 -3.7221166,1.857143 -4.0732597,1.857143 -0.9832006,0 -1.825944,-1 -1.825944,-1 -0.1404572,1 1.1938865,1.5 0.7725148,1.642857 -0.6320575,0.142857 -0.9832006,-0.214286 -1.9664012,-0.214286 -2.5282301,0 -2.7389159,1.857143 -2.7389159,1.857143 1.4748009,-1.5 6.1098894,-1.357143 6.1098894,-0.571428 0,0.714285 -0.7725148,0.357142 -0.7725148,0.571428 0,0.214286 0.9832006,1.642857 0.9832006,3.5 0,2.857143 -2.6686873,3.642857 -3.5114307,3.642857 -0.8427433,0 -1.1236578,-0.928571 -1.8259439,-1.571428 C 3.8837004,36 2.9707285,36.642857 2.9707285,36.642857 c 0,0 0.4213717,-0.07143 0.4213717,0.214286 0,0.285714 -0.3511431,0.285714 -0.3511431,0.714286 0,0.857142 1.264115,0.642857 1.4748009,0.642857 0.2106858,0 0.7022861,0.142857 0.7022861,0.642857 0,0.5 -3.7221165,0 -3.1602876,0.285714 0.5618289,0.285714 0.3511431,0.714286 0.3511431,1.142857 0,0.428572 0.351143,0.785715 0.7725147,0.785715 0.4213717,0 0.8427434,-0.285715 1.264115,-0.714286 0.4213717,-0.428572 0.7022862,-0.214286 0.8427434,-0.07143 0.1404572,0.142857 0.1404572,0.5 -0.070229,0.642857 -0.4213717,0.285715 -1.7557153,1.214286 -1.4748009,1.214286 0.2809145,0 0.5618289,0 0.5618289,0.142857 0,0.5 0.4916003,0.714286 0.7725148,0.714286 0.2809144,0 1.0534292,-0.214286 1.0534292,-1 0,-1.071429 0.4213716,-1.714286 0.9832006,-1.714286 0.5618289,0 0.5618289,0.785715 0.5618289,1.214286 0,0.428571 0.2809144,0.714286 0.7725147,0.714286 0.4916003,0 0.5618289,-0.5 0.5618289,-0.714286 0,-0.214286 0.7022862,-0.142857 0.8427434,-0.142857 C 9.9935898,41.357143 9.5019895,40.928571 8.869932,40.5 8.2378745,40.071429 8.3783317,39.857143 8.6592462,39.785714 8.9401606,39.714286 13.434792,38.5 13.083649,38.357143 c -0.280915,-0.142857 -0.421372,-0.5 -0.210686,-0.857143 0.4916,-0.857143 3.090059,0.928571 3.090059,0.928571 -0.842743,-1.5 -2.247316,-2.214285 -2.879373,-2.214285 -0.632058,0 -0.632058,-0.285715 -0.632058,-0.285715 -0.632057,-3.642857 0.280915,-4.5 1.474801,-4.642857 1.193887,-0.07143 2.317544,0.357143 3.792345,0.5 C 19.404224,32 20.176739,31.428571 19.966053,31.5 Z"
             id="Shape"
             inkscape:connector-curvature="0" />
          <path
             d="M 36,11.652174 C 36.07143,11.217391 36.642857,10.637681 36.857143,9.9855073 37.142857,9.2608696 37,8.1014493 36.428571,7.6666667 35.857143,7.3043478 35.071429,6.2173913 35.071429,6.2173913 c 0,0.5072464 0.5,1.5942029 0.07143,1.6666667 C 34.142857,8.0289855 33.357143,6 33.357143,6 c 0,0 -0.142857,1.2318841 0.571428,1.884058 0.785715,0.7246377 1.642858,1.8115942 1,2.246377 C 34.357143,10.565217 33.5,9.1884058 33.5,9.1884058 33.285714,10.710145 34.857143,11.289855 34.857143,11.289855 35,12.521739 32,15.130435 32,15.130435 L 33,16 c 1.642857,-1.666667 2.857143,-3.695652 3,-4.347826 z"
             id="path9"
             inkscape:connector-curvature="0" />
          <path
             d="M 38,21.388889 C 37.050424,21.111111 37.118251,21.805556 36.846943,21.736111 36.100848,21.319444 36.71129,18.75 36.71129,18.75 c -0.135654,-0.06944 -0.406962,0.347222 -0.474788,0.694444 -0.06783,0.416667 -0.135654,0.694445 -0.406962,0.625 -0.678268,-0.277777 -0.339134,-3.263888 -0.339134,-3.263888 -0.271307,0.208333 -0.474788,0.763888 -0.474788,1.319444 0,0.555556 -0.271307,0.694444 -0.271307,0.694444 C 34.473003,18.541667 33.659081,17.708333 31.827755,16.25 27.893797,12.708333 28.572066,11.805556 28.572066,11.805556 29.725123,11.25 30.132084,9.2361111 29.928603,9.6527778 29.725123,10.069444 28.775547,11.041667 28.368585,10.486111 27.961624,9.9305556 29.046854,9.3055556 29.657296,8.4027778 30.335564,7.5 30.335564,6.4583333 30.199911,6.7361111 c -0.06783,0.2777778 -1.220884,1.7361111 -1.831326,1.7361111 -0.678268,0 0.06783,-1.6666666 -0.06783,-1.5972222 -0.135654,0.069444 -1.899153,1.5972222 -1.899153,3.125 0,1.527778 1.153057,1.875 1.153057,1.875 0.271307,2.430556 2.238287,3.680556 3.391343,5.138889 1.153057,1.458333 4.815707,3.402778 4.815707,6.597222 0,3.194445 -2.984381,3.888889 -2.984381,3.888889 -0.610442,-1.736111 0.542614,-2.708333 0.542614,-2.708333 -0.746095,-0.277778 -1.28871,0.277777 -1.356537,0.416666 -0.06783,0.138889 -0.20348,0.347223 -0.474788,0 -0.881749,-1.458333 -2.645248,-0.972222 -2.645248,-0.972222 3.526997,1.666667 2.713075,3.402778 2.713075,3.402778 -1.560018,0 -4.069612,-1.388889 -4.069612,-4.236111 0,-2.847222 3.526997,-5.208334 3.526997,-5.208334 l -0.813922,-0.902777 c 0,0 -3.933958,2.291666 -3.933958,6.111111 0,5.277778 5.154841,5.277778 5.154841,5.416666 0,0.555556 -0.813922,1.736112 -2.441767,1.736112 -1.627845,0 -3.391343,-1.319445 -3.866131,-1.597223 C 24.638108,28.680556 23.417224,28.194444 23.010263,27.777778 22.603302,27.361111 22.060687,26.25 21.450245,25 c -0.610441,-1.180556 -0.271307,-1.944444 -0.06783,-1.597222 0.20348,0.347222 1.356537,1.25 1.153056,0.833333 -1.017403,-2.083333 -0.271307,-4.722222 -0.135653,-4.444444 0.406961,0.833333 1.695671,1.388889 1.356537,0.972222 -1.08523,-1.805556 -0.06783,-3.819445 0,-3.958333 0.135653,-0.138889 0.339134,0.277777 0.678268,0.694444 0.339135,0.416667 0.746096,0.486111 0.542615,0.277778 -0.542615,-0.972222 -0.474788,-4.236111 -0.271307,-4.097222 0.746095,0.763888 1.695671,0.902777 1.695671,0.902777 -1.28871,-1.388889 -1.560017,-3.125 -1.560017,-4.583333 0,-1.4583333 -1.356538,-3.125 -1.356538,-3.2638889 0,-0.1388889 0.271308,-0.4166667 0.271308,-0.9027778 C 23.756359,5.6944444 23.688532,5 22.806783,5 c -0.881749,0 -1.08523,0.7638889 -1.08523,0.7638889 0,0 -0.610442,-0.625 -2.645248,-0.625 -2.102633,0 -3.187862,0.4166667 -3.187862,0.7638889 0,0.3472222 -0.678269,0.2777778 -0.678269,0.2777778 -0.813922,0 -0.813922,1.1111111 -0.406961,1.1111111 0.406961,0 0.271307,-0.5555556 0.610442,-0.5555556 0.06783,0 0.271307,0 0.271307,0.2777778 0,0.7638889 -0.949576,0.4861111 -1.017403,0.7638889 C 14.464078,8.75 15.413655,9.375 15.413655,9.375 c 0,0 0.339134,-1.1805556 1.492191,-1.1805556 1.153056,0 1.356537,1.1111112 1.356537,1.1111112 0,0 -1.560018,0.625 -3.730478,0.625 -3.933958,0 -2.238286,-3.5416667 -2.238286,-3.5416667 -2.17046,1.3194444 -1.695672,4.3750001 1.356537,4.3750001 3.052209,0 4.680054,-1.1805557 4.883534,-0.8333334 0.203481,0.5555554 -0.678268,1.5972224 -1.560018,1.5972224 -0.881749,0 -1.424364,-0.625 -1.424364,-0.625 -0.339134,0.763889 0.271308,1.875 1.356538,1.875 1.085229,0 2.170459,-1.180556 2.170459,-1.180556 0.406961,0.416667 -0.610442,2.222222 -3.187862,2.5 -2.509594,0.277778 -3.798305,-0.902778 -3.798305,-0.902778 -0.135653,0.138889 -0.20348,0.555556 0,0.833334 0.203481,0.277778 -0.06783,0.277778 -0.06783,0.277778 L 8.291834,10.347222 C 7.5457385,9.0277778 8.5631415,8.6111111 8.9701026,7.9861111 c 0.4069612,-0.625 0.067827,-1.3888889 0.067827,-1.3888889 0,0.2777778 -0.3391343,0.625 -0.5426149,0.4166667 C 8.291834,6.8055556 8.0205266,6.8055556 7.817046,6.875 7.6813922,6.9444444 7.2744311,7.0138889 7.4100848,7.9861111 7.5457385,8.8888889 7.3422579,8.9583333 7.1387773,8.9583333 6.9352967,8.9583333 6.799643,8.8194444 6.799643,8.2638889 6.799643,7.5 6.5961624,5.9027778 6.4605087,6.4583333 6.2570281,6.9444444 5.3752789,6.5277778 5.2396252,6.6666667 4.9683177,7.0833333 4.832664,7.7777778 5.5109326,8.3333333 6.1892012,8.8888889 6.1213744,9.3055556 5.9178938,9.4444444 5.7144132,9.5833333 5.5787595,9.4444444 5.1039714,8.8888889 4.6291834,8.2638889 3.815261,7.7083333 3.8830879,7.8472222 3.9509148,7.9861111 3.9509148,8.4027778 3.815261,8.5416667 3.6796073,8.6805556 3.1369924,8.6111111 3.1369924,9.3055556 3.1369924,10 4.0187416,10.486111 4.6970103,10.416667 5.3752789,10.347222 5.7822401,10.833333 5.8500669,11.25 5.9178938,11.666667 5.5109326,12.152778 5.1717983,12.013889 4.832664,11.875 4.0865685,11.597222 4.0865685,12.569444 c 0,0.902778 0.9495761,0.833334 0.9495761,1.041667 0,0.208333 0.1356537,0.694445 0.2034806,0.486111 0.3391343,-0.833333 0.8817492,-1.875 1.1530566,-1.597222 0.2713075,0.277778 1.2887104,1.736111 1.7634985,2.083333 0.474788,0.347223 0.474788,0.694445 0.2713074,0.694445 -1.1530566,0 -1.8313253,0.972222 -1.6278447,0.972222 0.1356537,-0.06944 0.7460955,-0.277778 1.6956716,-0.277778 0.9495761,0 1.2887104,0.694445 1.4243641,0.555556 0.4747883,-0.833334 1.6278443,-1.736111 2.4417673,-1.736111 0.813922,0 0.881749,0.277777 0.881749,0.416666 0,0.138889 -0.135654,0.347223 -0.474788,0.347223 -2.034806,0 -4.2052655,3.958333 -3.2556895,3.194444 0.9495765,-0.763889 1.6956715,-0.694444 1.8991525,-0.277778 0.20348,0.416667 -0.542615,0.625 -0.542615,0.625 0,0 -4.2052657,1.527778 -4.9513612,1.875 C 5.1039714,21.319444 4.9004908,21.25 4.9004908,21.25 3.7474342,20.972222 4.2222222,19.791667 4.0187416,19.305556 3.6796073,18.472222 2.865685,17.847222 3.0013387,18.125 c 0.1356537,0.277778 0.067827,0.694444 -0.067827,0.694444 -0.1356537,0 -0.6104417,0.06944 -0.6104417,0.555556 0,0.486111 0.067827,0.763889 0.6104417,1.041667 0.4747881,0.277777 0.2713075,0.625 0.2034806,0.694444 -0.067827,0.06944 -0.4069612,0.277778 -0.6782686,-0.06944 C 2.1874163,20.694444 0.69522535,19.375 0.83087907,19.722222 c 0.0678269,0.347222 -0.0678269,0.555556 -0.0678269,0.555556 0,0 -0.67826863,0.138889 -0.67826863,0.694444 0,1.041667 1.08522986,1.041667 1.56001786,1.111111 0.4747881,0 0.8817493,-0.138889 0.8817493,0.208334 0,0.833333 -1.76349853,0.486111 -2.10263285,0.486111 -0.33913431,0 -0.47478804,0.138889 -0.40696117,0.138889 0.13565372,0 0.33913431,0.208333 0.33913431,0.416666 0,0.208334 -0.13565373,0.347223 -0.13565373,0.555556 0,0.208333 0.13565373,0.833333 0.94957614,0.833333 0.8817492,0 1.1530567,-1.180555 1.7634984,-1.180555 0.5426149,0 0.8817492,0.347222 0.8817492,0.902777 0,0.555556 -0.5426149,0.138889 -0.5426149,1.111112 0,0.972222 1.2887104,0.347222 1.2887104,0.486111 0,0.138889 0.1356538,0.694444 0.2034806,0.486111 0.067827,-0.347222 0.067827,-0.763889 0,-1.597222 0,-0.694445 0,-0.972223 0.4069612,-1.041667 2.5095939,-0.625 3.8661312,-0.833333 3.7304775,-0.555556 -0.4069612,1.041667 0,2.013889 0,2.013889 0.2034806,-1.25 0.6104417,-1.736111 0.949576,-2.152778 0.4747882,-0.625 1.3565372,-0.277777 1.2208832,-0.555555 -0.135653,-0.277778 -0.06783,-1.041667 0.610442,-1.041667 0.746096,0 0.135654,2.430556 0.406961,2.291667 0.271308,-0.138889 0.88175,-0.694445 1.288711,-1.319445 0.406961,-0.625 0.746095,-1.527777 1.28871,-1.041666 0.542615,0.486111 -1.356537,2.222222 -1.153056,2.5 0.20348,0.277778 1.356537,1.458333 2.509593,2.361111 1.220884,0.833333 3.933958,2.430555 3.933958,3.819444 0,1.388889 -0.474788,1.597223 -0.474788,3.194445 0,3.611111 1.08523,3.194444 1.08523,4.027778 0,0.833333 -0.746095,2.083333 -0.746095,2.083333 0.949576,-0.416667 1.492191,-1.458333 1.627844,-1.319445 0.135654,0.138889 0,0.625 0,1.180556 0.06783,1.458333 0.610442,2.5 0.610442,2.5 -0.06783,-2.916667 0.474788,-3.611111 0.813922,-3.472222 0.339135,0.138889 0.135654,0.555555 0.271308,0.694444 0.678269,0.277778 0.746095,0.208334 0.746095,2.638889 0,2.430556 -0.610441,3.680556 -1.424364,3.680556 -0.813922,0 -1.627844,-1.527778 -2.170459,-1.736111 -0.542615,-0.208334 -1.08523,-0.06945 -1.08523,-0.06945 0,0 0.271307,0.138889 0.271307,0.347222 0,0.277778 -0.339134,0.347223 -0.339134,0.694445 0,0.625 0.813922,0.694444 1.08523,0.625 0.271307,-0.06944 0.813922,-0.138889 0.881749,0.486111 0.06783,0.625 -2.713074,0.277778 -2.713074,0.277778 0.20348,0.277777 0.610441,0.277777 0.474788,0.486111 -0.339135,0.625 -0.06783,1.458333 0.542615,1.388889 0.542614,-0.06944 1.356537,-0.694445 1.49219,-0.833334 0.135654,-0.138889 0.474789,-0.277777 0.678269,0.208334 0.203481,0.486111 -1.763498,1.666666 -1.763498,1.666666 0.406961,0.208334 0.678268,-0.06944 0.678268,0.138889 0,0.416667 0.203481,0.902778 0.88175,0.902778 0.678268,0 0.881749,-0.833333 1.017403,-1.527778 0.135653,-0.694444 0.678268,-0.902778 0.813922,-0.902778 0.135654,-0.06944 0.542615,-0.06944 0.542615,0.347223 0,0.416666 0.20348,1.180555 0.949576,1.180555 0.746095,0 0.746095,-0.763889 0.813922,-0.902778 0.06783,-0.138888 0.542615,-0.06944 0.542615,-0.06944 -0.339134,-0.277778 -1.08523,-0.694444 -1.220883,-0.694444 -0.135654,-0.06945 -0.678269,-0.138889 -0.271308,-0.486112 1.627845,-1.805555 2.848728,-6.597222 2.645248,-6.597222 -0.813923,0 -0.881749,-0.902778 -0.271308,-0.902778 2.102633,0.06945 2.645248,-0.972222 2.645248,-0.972222 0,0 -0.881749,0.277778 -1.831325,0.06944 -3.933958,-1.111111 -3.866132,-5.833334 -3.594824,-6.319445 0.271307,-0.486111 0.610442,-1.527778 0.542615,-2.013889 -0.135654,-0.555555 0.135654,-0.486111 0.135654,-0.486111 4.680053,2.569445 6.714859,8.541667 6.714859,8.541667 0.135654,-3.611111 -2.916555,-6.805556 -2.916555,-6.805556 3.66265,0.347223 4.069612,-2.777777 4.069612,-2.777777 3.187862,-0.486112 4.408746,-3.888889 4.273092,-5.277778 C 36.846943,22.013889 38,21.388889 38,21.388889 Z M 14.396252,17.708333 c -0.06783,0 -1.08523,0.694445 -1.288711,2.708334 0,0.208333 -0.20348,0.347222 -0.339134,0.347222 0,0 0,0 -0.06783,0 -0.203481,0 -0.339134,-0.208333 -0.339134,-0.416667 0.20348,-2.361111 1.560018,-3.194444 1.627844,-3.263889 0.203481,-0.06944 0.406962,-0.06944 0.474788,0.138889 0.135654,0.138889 0.135654,0.416667 -0.06783,0.486111 z M 18.33021,7.5694444 c -0.474788,0 -0.610442,-0.2083333 -0.746096,-0.4166666 0,0 1.08523,-0.1388889 1.08523,-0.3472222 0,-0.1388889 -0.339134,-0.069445 -0.339134,-0.069445 h -0.949576 c 0,0 -0.203481,-0.2083333 -0.203481,-0.4861111 0,0 0,-0.2083333 0.339134,-0.2083333 h 1.695672 c 0,0 0.339134,0 0.339134,0.2777777 0,0.2777778 -0.406961,0.2083334 -0.406961,0.2083334 0,0 0,1.0416666 -0.813922,1.0416671 z m 0.06783,6.9444446 C 18.53369,14.375 18.737171,14.305556 18.872825,14.375 c 0.06783,0.06944 1.695671,1.041667 1.017403,4.166667 -0.06783,0.138889 -0.203481,0.277777 -0.339135,0.277777 0,0 -0.06783,0 -0.06783,0 C 19.279786,18.75 19.144132,18.611111 19.211959,18.402778 19.754574,15.833333 18.601517,15.069444 18.53369,15 18.33021,14.930556 18.33021,14.722222 18.398037,14.513889 Z m -2.645248,2.291667 c 0.06783,-0.208334 0.339134,-0.208334 0.474788,-0.138889 0,0 0.678269,0.347222 0.881749,1.25 0.271308,0.902777 0,2.013889 -0.678268,3.263889 -0.06783,0.138888 -0.203481,0.208333 -0.339135,0.208333 -0.06783,0 -0.135654,0 -0.20348,-0.06944 -0.203481,-0.06944 -0.203481,-0.347222 -0.135654,-0.486111 0.610442,-1.041666 0.813922,-1.944444 0.610442,-2.638889 -0.135654,-0.555555 -0.542615,-0.833333 -0.542615,-0.833333 -0.06783,-0.138889 -0.135654,-0.347222 -0.06783,-0.555555 z m -0.203481,7.638888 c -0.06783,0 -0.135653,0.06944 -0.135653,0.06944 -0.135654,0 -0.271308,-0.06944 -0.339135,-0.208333 -0.06783,-0.208334 0,-0.416667 0.135654,-0.486112 1.695672,-0.902777 1.763498,-2.083333 1.763498,-2.083333 0,-0.208333 0.203481,-0.347222 0.406962,-0.347222 0.20348,0 0.339134,0.208333 0.339134,0.416667 0,0 -0.06783,1.597222 -2.17046,2.638888 z M 18.53369,24.375 c -0.06783,0 -0.135653,0.06944 -0.135653,0.06944 -0.135654,0 -0.271308,-0.06944 -0.339135,-0.208333 -0.06783,-0.208333 0,-0.416667 0.135654,-0.486111 1.424364,-0.763889 1.492191,-2.152778 1.492191,-2.222222 0,-0.208334 0.135654,-0.347222 0.339134,-0.347222 0,0 0,0 0,0 0.203481,0 0.339135,0.138888 0.339135,0.347222 0.06783,0.06944 0,1.875 -1.831326,2.847222 z M 20.839804,15 c 0.20348,-2.083333 -0.203481,-2.708333 -0.203481,-2.708333 -0.06783,-0.138889 -0.135654,-0.277778 -0.06783,-0.416667 0.06783,-0.138889 0.203481,-0.208333 0.339134,-0.208333 h 0.135654 c 0.813923,0 1.08523,-0.06944 1.220884,-0.138889 C 22.196341,11.25 21.246765,10.625 20.229362,10.277778 20.025881,10.208333 19.958054,10 20.025881,9.7916667 c 0.06783,-0.2083334 0.271308,-0.2777778 0.474788,-0.2083334 0.610442,0.2083334 2.509594,0.9722227 2.509594,1.9444447 0,0.208333 -0.06783,0.347222 -0.20348,0.486111 -0.271308,0.277778 -0.746096,0.347222 -1.288711,0.347222 0.135654,0.486111 0.203481,1.25 0.135654,2.638889 0,0.208333 -0.203481,0.347222 -0.339134,0.347222 0,0 0,0 0,0 -0.339135,0 -0.474788,-0.138889 -0.474788,-0.347222 z"
             id="path11"
             inkscape:connector-curvature="0" />
          <path
             d="m 15.268908,1.1929825 c 0.268907,0 0.470588,0.2105263 0.470588,0.491228 0,0.2105263 -0.134454,0.3508772 -0.268908,0.4210527 L 15.941176,4 h 6.117647 l 0.537816,-1.9649123 c -0.201681,-0.070175 -0.268908,-0.2105263 -0.268908,-0.3508772 0,-0.2807017 0.201681,-0.491228 0.470588,-0.491228 0,0 0,0 0,0 L 23,0.42105263 c 0,0 -2.084034,0.42105263 -2.084034,1.33333337 0,0.491228 0.605042,0.5614035 0.605042,0.5614035 0,0 0.336135,0.8421052 -0.470588,0.8421052 -0.336134,0 -0.739496,0 -0.739496,0 0,0 -0.672269,-0.070175 -0.873949,-0.7719298 0,0 0.873949,-0.070175 0.873949,-0.7719298 C 20.310924,0.98245614 18.89916,0 18.89916,0 c 0,0 -1.344538,0.98245614 -1.344538,1.8245614 0,0.4210526 0.806723,0.5614035 0.806723,0.5614035 0,0 0.06723,0.8421053 -0.537816,0.8421053 -0.403361,0 -0.806722,0 -0.806722,0 0,0 -0.739496,0 -0.739496,-0.8421053 0,0 0.672269,-0.070175 0.672269,-0.7017544 0,-0.6315789 -1.411765,-1.26315787 -1.94958,-1.33333331 l 0.268908,0.84210531 c -0.06723,0 -0.06723,0 0,0 z m 3.697479,0 c 0.268907,0 0.470588,0.2105263 0.470588,0.491228 0,0.2807018 -0.201681,0.4912281 -0.470588,0.4912281 -0.268908,0 -0.470589,-0.2105263 -0.470589,-0.4912281 0,-0.2807017 0.201681,-0.491228 0.470589,-0.491228 z"
             id="path13"
             inkscape:connector-curvature="0" />
        </g>
      </g>
    </g>
  </g>
</svg>
